<svg width="78" height="75" viewBox="0 0 78 75" fill="none" xmlns="http://www.w3.org/2000/svg">
<g filter="url(#filter0_d_107_13)">
<path d="M74 33.1298C74 51.4268 58.33 66.2595 39 66.2595C19.67 66.2595 4 51.4268 4 33.1298C4 14.8327 19.67 0 39 0C58.33 0 74 14.8327 74 33.1298Z" fill="url(#paint0_linear_107_13)"/>
<path d="M15.5747 54.1449L13.5708 33.8396L12.5021 14.8701L21.5861 43.5915L23.3702 21.374L26.4428 57.3091" stroke="#A575BC" stroke-width="4"/>
<path d="M47.3027 58.2442L50.3752 18.5687L53.9821 44.3511L63.3332 11.7557L61.1958 55.5725" stroke="#4A4063" stroke-width="4"/>
<path d="M53.0267 46.2214C45.1188 52.7842 38.7328 50.3626 38.7328 50.3626L33.7901 36.2023C33.7901 36.2023 39.6002 30.1461 47.6832 30.5916" stroke="#C291D9" stroke-width="6"/>
<path d="M23.6999 19.3991L27.4669 31.9751C27.4669 31.9751 49.8598 27.0008 46.6145 19.9045C43.4224 12.9246 41.0784 11.3988 24.2916 18.1835C23.8143 18.3764 23.5522 18.906 23.6999 19.3991Z" fill="#4A4063"/>
<path d="M27.4669 31.9751L23.6999 19.3991C23.5522 18.906 23.8143 18.3764 24.2916 18.1835C41.0784 11.3988 43.4224 12.9246 46.6145 19.9045C49.8598 27.0008 27.4669 31.9751 27.4669 31.9751ZM27.4669 31.9751L33.5922 54.4651" stroke="#D9D9D9" stroke-width="3"/>
<path d="M53.6947 46.8893C46.2925 52.9276 37.8341 51.4978 37.8341 51.4978L32.215 35.7476C32.215 35.7476 40.3136 28.6543 47.8168 28.9885" stroke="#D9D9D9" stroke-width="3"/>
</g>
<defs>
<filter id="filter0_d_107_13" x="0" y="0" width="78" height="74.2595" filterUnits="userSpaceOnUse" color-interpolation-filters="sRGB">
<feFlood flood-opacity="0" result="BackgroundImageFix"/>
<feColorMatrix in="SourceAlpha" type="matrix" values="0 0 0 0 0 0 0 0 0 0 0 0 0 0 0 0 0 0 127 0" result="hardAlpha"/>
<feOffset dy="4"/>
<feGaussianBlur stdDeviation="2"/>
<feComposite in2="hardAlpha" operator="out"/>
<feColorMatrix type="matrix" values="0 0 0 0 0 0 0 0 0 0 0 0 0 0 0 0 0 0 0.25 0"/>
<feBlend mode="normal" in2="BackgroundImageFix" result="effect1_dropShadow_107_13"/>
<feBlend mode="normal" in="SourceGraphic" in2="effect1_dropShadow_107_13" result="shape"/>
</filter>
<linearGradient id="paint0_linear_107_13" x1="39" y1="0" x2="39" y2="66.2595" gradientUnits="userSpaceOnUse">
<stop offset="0.264423" stop-color="#FFA237"/>
<stop offset="1" stop-color="#A575BC"/>
</linearGradient>
</defs>
</svg>
