<svg width="65" height="83" viewBox="0 0 65 83" fill="none" xmlns="http://www.w3.org/2000/svg">
<rect opacity="0.6" width="44" height="83" fill="#656565"/>
<rect x="2" width="42" height="83" fill="#4A4063"/>
<path d="M44.5 0L65 6V78L44.5 82.5V0Z" fill="#D9D9D9"/>
<circle cx="21.7851" cy="16.7782" r="11.4392" fill="#A575BC"/>
<path d="M33.3503 17.2675C31.4049 14.5029 27.5985 15.0808 25.4258 15.7047C24.6883 15.9165 24.5735 16.8375 25.1928 17.2906L25.4331 17.4664C25.4331 17.4664 31.0349 17.9925 32.0819 18.838C33.1288 19.6835 33.2898 17.9276 33.3503 17.2675Z" fill="#D9D9D9" stroke="#4A4063"/>
<path d="M14.7243 24.4521C18.304 24.3475 20.5397 21.1195 21.5973 19.0838C21.958 18.3895 21.342 17.671 20.5784 17.8417L20.355 17.8916C20.355 17.8916 15.709 21.2582 14.3831 21.4888C11.4051 20.469 14.2677 23.9717 14.7243 24.4521Z" fill="#D9D9D9" stroke="#4A4063"/>
<path d="M10.6813 17.5014C12.991 19.9699 16.6806 18.8701 18.7459 17.9512C19.447 17.6393 19.4331 16.7113 18.757 16.3484L18.4946 16.2075C18.4946 16.2075 14.0349 16.6969 10.6812 14.6851C9.5272 13.9929 10.6498 16.8394 10.6813 17.5014Z" fill="#D9D9D9" stroke="#4A4063"/>
<path d="M30.5658 22.8345C29.9501 19.4535 26.2082 18.6821 24.0292 18.5228C23.2983 18.4694 22.866 19.2347 23.2212 19.8757L23.4364 20.2638C23.4364 20.2638 27.8411 21.4887 28.514 24.8532C28.7832 26.1989 30.2339 23.4082 30.5658 22.8345Z" fill="#D9D9D9" stroke="#4A4063"/>
<path d="M24.0359 26.9152C26.1787 24.3006 24.6027 20.7879 23.4199 18.8616C23.0184 18.2077 22.1003 18.3436 21.8295 19.0616L21.7245 19.3403C21.7245 19.3403 21.528 25.1495 20.5278 26.9034C19.5276 28.6572 23.3838 27.0336 24.0359 26.9152Z" fill="#D9D9D9" stroke="#4A4063"/>
<path d="M14.5783 8.71902C13.2325 13.4295 19.2884 16.121 19.2884 16.121L19.2886 14.7752C19.2886 14.7752 16.597 10.0649 16.597 8.71917C16.597 7.37345 15.1297 8.35141 14.5783 8.71902Z" fill="#D9D9D9" stroke="#4A4063"/>
<path d="M30.7489 9.94148C27.5463 8.85901 24.8157 11.5731 23.4307 13.3595C22.9605 13.9659 23.4116 14.777 24.179 14.777L24.4768 14.777C24.4768 14.777 29.3084 11.8938 30.6526 11.9579C31.9968 12.022 31.0898 10.5099 30.7489 9.94148Z" fill="#D9D9D9" stroke="#4A4063"/>
<path d="M22.256 5.92011C18.1251 7.9358 20.4392 13.4141 20.4392 13.4141L21.3402 13.2193C21.3402 13.2193 23.5588 8.21464 24.4766 7.35777C25.3944 6.50089 22.8831 6.08914 22.256 5.92011Z" fill="#D9D9D9" stroke="#4A4063"/>
<circle cx="21.7851" cy="16.7784" r="3.11448" fill="#D9D9D9" stroke="#4A4063" stroke-width="0.5"/>
<circle cx="21.2787" cy="42.1836" r="11.4392" transform="rotate(162.136 21.2787 42.1836)" fill="#A575BC"/>
<path d="M10.1209 45.2657C12.8206 47.3003 16.2662 45.5825 18.1427 44.3222C18.7797 43.8944 18.6065 42.9826 17.8781 42.7414L17.5954 42.6477C17.5954 42.6477 12.1023 43.8654 10.8464 43.3819C9.59058 42.8983 9.97602 44.619 10.1209 45.2657Z" fill="#D9D9D9" stroke="#4A4063"/>
<path d="M25.6449 32.7138C22.2699 33.9115 21.1322 37.6696 20.7501 39.9316C20.6197 40.7031 21.4265 41.198 22.1009 40.8013L22.2983 40.6852C22.2983 40.6852 25.6875 36.0557 26.8787 35.4296C30.026 35.4866 26.2269 33.0309 25.6449 32.7138Z" fill="#D9D9D9" stroke="#4A4063"/>
<path d="M31.6252 38.089C28.6696 36.4481 25.4952 38.6267 23.8114 40.1348C23.2399 40.6468 23.5377 41.5258 24.2926 41.6638L24.5855 41.7174C24.5855 41.7174 28.6801 39.8835 32.4892 40.7695C33.7999 41.0744 31.8583 38.7095 31.6252 38.089Z" fill="#D9D9D9" stroke="#4A4063"/>
<path d="M11.0635 39.1129C12.6866 42.142 16.4847 41.7284 18.6076 41.2115C19.3196 41.0382 19.4963 40.1771 18.9615 39.6761L18.6377 39.3726C18.6377 39.3726 14.0696 39.558 12.397 36.5622C11.728 35.3639 11.2033 38.4651 11.0635 39.1129Z" fill="#D9D9D9" stroke="#4A4063"/>
<path d="M16.0267 33.2259C14.7892 36.3718 17.3668 39.2316 19.0835 40.7022C19.6663 41.2014 20.4984 40.7903 20.5358 40.0239L20.5504 39.7265C20.5504 39.7265 18.9553 34.137 19.3692 32.1609C19.7832 30.1848 16.611 32.9131 16.0267 33.2259Z" fill="#D9D9D9" stroke="#4A4063"/>
<path d="M30.6102 47.6434C30.4461 42.7472 23.8566 42.0432 23.8566 42.0432L24.2692 43.3242C24.2692 43.3242 28.276 46.9817 28.6888 48.2625C29.1016 49.5433 30.1981 48.1624 30.6102 47.6434Z" fill="#D9D9D9" stroke="#4A4063"/>
<path d="M14.8443 51.4405C18.2245 51.4883 19.9909 48.0674 20.7611 45.9423C21.0226 45.2209 20.3444 44.5873 19.6141 44.8227L19.3306 44.9141C19.3306 44.9141 15.6164 49.1404 14.3174 49.4917C13.0183 49.8431 14.3454 51.0041 14.8443 51.4405Z" fill="#D9D9D9" stroke="#4A4063"/>
<path d="M24.1613 52.6627C27.4747 49.4769 23.5916 44.9727 23.5916 44.9727L22.7938 45.4345C22.7938 45.4345 22.2174 50.8784 21.6068 51.9755C20.9961 53.0726 23.5126 52.6942 24.1613 52.6627Z" fill="#D9D9D9" stroke="#4A4063"/>
<circle cx="21.2786" cy="42.1835" r="3.11448" transform="rotate(162.136 21.2786 42.1835)" fill="#D9D9D9" stroke="#4A4063" stroke-width="0.5"/>
<circle cx="21.8118" cy="66.8381" r="11.4392" transform="rotate(11.4911 21.8118 66.8381)" fill="#A575BC"/>
<path d="M33.0477 69.6216C31.6921 66.5248 27.8468 66.3329 25.5934 66.5114C24.8285 66.572 24.5325 67.4517 25.0491 68.019L25.2496 68.2392C25.2496 68.2392 30.6343 69.8708 31.4919 70.9079C32.3494 71.945 32.857 70.2563 33.0477 69.6216Z" fill="#D9D9D9" stroke="#4A4063"/>
<path d="M13.3638 72.9515C16.8926 73.5621 19.7265 70.8443 21.1685 69.0601C21.6603 68.4516 21.1997 67.6247 20.4175 67.6398L20.1885 67.6443C20.1885 67.6443 14.965 70.0178 13.6198 69.9796C10.9046 68.387 13.012 72.3898 13.3638 72.9515Z" fill="#D9D9D9" stroke="#4A4063"/>
<path d="M10.7865 65.3348C12.5582 68.2139 16.3929 67.8712 18.5998 67.3822C19.349 67.2162 19.5203 66.304 18.93 65.8137L18.701 65.6234C18.701 65.6234 14.2331 65.2145 11.3475 62.5749C10.3545 61.6667 10.8875 64.6797 10.7865 65.3348Z" fill="#D9D9D9" stroke="#4A4063"/>
<path d="M29.2099 74.5223C29.2801 71.0864 25.767 69.585 23.6633 68.9949C22.9578 68.7969 22.3816 69.4607 22.6021 70.1596L22.7356 70.5829C22.7356 70.5829 26.808 72.6607 26.7971 76.0918C26.7929 77.4642 28.7704 75.0184 29.2099 74.5223Z" fill="#D9D9D9" stroke="#4A4063"/>
<path d="M21.9981 77.2203C24.6188 75.085 23.7742 71.3287 22.9988 69.2054C22.7356 68.4847 21.8088 68.435 21.4005 69.0847L21.242 69.3368C21.242 69.3368 19.8922 74.9905 18.5627 76.5099C17.2331 78.0293 21.3354 77.2065 21.9981 77.2203Z" fill="#D9D9D9" stroke="#4A4063"/>
<path d="M16.3549 57.5048C14.0978 61.8527 19.496 65.6967 19.496 65.6967L19.7644 64.3779C19.7644 64.3779 18.0651 59.2258 18.3332 57.9071C18.6013 56.5883 16.9686 57.2544 16.3549 57.5048Z" fill="#D9D9D9" stroke="#4A4063"/>
<path d="M31.9579 61.9242C29.0352 60.2254 25.8186 62.3411 24.1054 63.8158C23.5239 64.3164 23.8044 65.2011 24.5564 65.3539L24.8482 65.4133C24.8482 65.4133 30.1573 63.5504 31.4618 63.881C32.7663 64.2116 32.1788 62.5491 31.9579 61.9242Z" fill="#D9D9D9" stroke="#4A4063"/>
<path d="M24.4364 56.2915C19.9867 57.4439 21.1631 63.2733 21.1631 63.2733L22.0848 63.262C22.0848 63.262 25.256 58.7996 26.326 58.1427C27.3961 57.4859 25.0172 56.5821 24.4364 56.2915Z" fill="#D9D9D9" stroke="#4A4063"/>
<circle cx="21.8117" cy="66.8383" r="3.11448" transform="rotate(11.4911 21.8117 66.8383)" fill="#D9D9D9" stroke="#4A4063" stroke-width="0.5"/>
<circle cx="4" cy="80" r="1" fill="black"/>
<circle cx="40" cy="80" r="1" fill="black"/>
<circle cx="40" cy="3" r="1" fill="black"/>
<circle cx="4" cy="3" r="1" fill="black"/>
</svg>
